<svg fill="none" height="20" viewBox="0 0 19 20" width="19" xmlns="http://www.w3.org/2000/svg">
  <path d="M1.3247 18.125C1.3247 18.6223 1.53405 19.0992 1.90669 19.4508C2.27934 19.8025 2.78475 20 3.31175 20H15.2341C15.7611 20 16.2665 19.8025 16.6391 19.4508C17.0118 19.0992 17.2211 18.6223 17.2211 18.125V5H1.3247V18.125ZM12.5847 8.125C12.5847 7.95924 12.6544 7.80027 12.7787 7.68306C12.9029 7.56585 13.0713 7.5 13.247 7.5C13.4227 7.5 13.5911 7.56585 13.7154 7.68306C13.8396 7.80027 13.9094 7.95924 13.9094 8.125V16.875C13.9094 17.0408 13.8396 17.1997 13.7154 17.3169C13.5911 17.4342 13.4227 17.5 13.247 17.5C13.0713 17.5 12.9029 17.4342 12.7787 17.3169C12.6544 17.1997 12.5847 17.0408 12.5847 16.875V8.125ZM8.61055 8.125C8.61055 7.95924 8.68034 7.80027 8.80455 7.68306C8.92877 7.56585 9.09724 7.5 9.2729 7.5C9.44857 7.5 9.61704 7.56585 9.74126 7.68306C9.86547 7.80027 9.93525 7.95924 9.93525 8.125V16.875C9.93525 17.0408 9.86547 17.1997 9.74126 17.3169C9.61704 17.4342 9.44857 17.5 9.2729 17.5C9.09724 17.5 8.92877 17.4342 8.80455 17.3169C8.68034 17.1997 8.61055 17.0408 8.61055 16.875V8.125ZM4.63645 8.125C4.63645 7.95924 4.70624 7.80027 4.83045 7.68306C4.95466 7.56585 5.12314 7.5 5.2988 7.5C5.47447 7.5 5.64294 7.56585 5.76715 7.68306C5.89137 7.80027 5.96115 7.95924 5.96115 8.125V16.875C5.96115 17.0408 5.89137 17.1997 5.76715 17.3169C5.64294 17.4342 5.47447 17.5 5.2988 17.5C5.12314 17.5 4.95466 17.4342 4.83045 17.3169C4.70624 17.1997 4.63645 17.0408 4.63645 16.875V8.125ZM17.8835 1.25001H12.9158L12.5267 0.519538C12.4443 0.363372 12.3173 0.232008 12.1601 0.140225C12.0028 0.0484421 11.8216 -0.00011828 11.6367 6.84872e-06H6.905C6.72053 -0.000662313 6.53959 0.047717 6.38291 0.139602C6.22623 0.231487 6.10014 0.363161 6.01911 0.519538L5.62998 1.25001H0.66235C0.486684 1.25001 0.318213 1.31585 0.193998 1.43306C0.0697831 1.55027 0 1.70925 0 1.87501L0 3.12501C0 3.29077 0.0697831 3.44974 0.193998 3.56695C0.318213 3.68416 0.486684 3.75001 0.66235 3.75001H17.8835C18.0591 3.75001 18.2276 3.68416 18.3518 3.56695C18.476 3.44974 18.5458 3.29077 18.5458 3.12501V1.87501C18.5458 1.70925 18.476 1.55027 18.3518 1.43306C18.2276 1.31585 18.0591 1.25001 17.8835 1.25001Z"
        fill="#3f51b5"/>
</svg>
